<svg xmlns="http://www.w3.org/2000/svg" viewBox="0 0 148.82 148.82"><defs><style>.cls-1{fill:none;stroke:#fff;stroke-miterlimit:10;stroke-width:6px;}.cls-2{fill:#fff;}</style></defs><title>AppleMusicIconDarkTheme</title><g id="Layer_2" data-name="Layer 2"><g id="Capa_1" data-name="Capa 1"><circle class="cls-1" cx="74.41" cy="74.41" r="71.41"/><path class="cls-2" d="M96.67,74c-.1-10.33,8.42-15.28,8.8-15.53a19,19,0,0,0-14.91-8.08c-6.35-.64-12.39,3.74-15.61,3.74s-8.19-3.64-13.45-3.55A20,20,0,0,0,44.63,60.77c-7.19,12.48-1.84,31,5.17,41.08,3.42,5,7.51,10.52,12.87,10.32,5.16-.21,7.12-3.34,13.36-3.34s8,3.34,13.46,3.24,9.08-5,12.48-10a45,45,0,0,0,5.65-11.6C107.49,90.4,96.77,86.3,96.67,74ZM86.4,43.66a18,18,0,0,0,4.24-13c-4.1.17-9.07,2.73-12,6.18C76,39.87,73.68,44.75,74.3,49.43,78.88,49.79,83.55,47.11,86.4,43.66Z"/></g></g></svg>